<svg xmlns="http://www.w3.org/2000/svg" xmlns:xlink="http://www.w3.org/1999/xlink" width="500" zoomAndPan="magnify" viewBox="0 0 375 374.999991" height="500" preserveAspectRatio="xMidYMid meet" version="1.0"><path fill="#00c853" d="M 177.929688 3.429688 C 183.96875 0.0429688 191.40625 0.0429688 197.4375 3.429688 C 227.285156 20.164062 317.097656 70.53125 346.953125 87.261719 C 352.996094 90.640625 356.714844 96.894531 356.714844 103.667969 C 356.714844 137.132812 356.714844 237.859375 356.714844 271.324219 C 356.714844 278.09375 352.996094 284.351562 346.953125 287.738281 C 317.109375 304.46875 227.292969 354.835938 197.4375 371.570312 C 191.398438 374.957031 183.960938 374.957031 177.929688 371.570312 C 148.082031 354.835938 58.265625 304.46875 28.414062 287.738281 C 22.378906 284.351562 18.660156 278.105469 18.660156 271.332031 C 18.660156 237.867188 18.660156 137.140625 18.660156 103.675781 C 18.660156 96.90625 22.378906 90.648438 28.421875 87.261719 C 58.257812 70.53125 148.089844 20.164062 177.929688 3.429688 Z M 177.929688 3.429688 " fill-opacity="1" fill-rule="nonzero"/><path fill="#69f0ae" d="M 21.367188 279.953125 C 19 276.789062 18.660156 273.785156 18.660156 269.742188 C 18.660156 236.472656 18.660156 136.324219 18.660156 103.046875 C 18.660156 96.308594 22.371094 90.089844 28.394531 86.730469 C 58.132812 70.09375 147.644531 20.019531 177.386719 3.375 C 183.410156 0.0078125 191.566406 0.078125 197.589844 3.449219 C 227.328125 20.082031 316.539062 69.730469 346.277344 86.367188 C 348.679688 87.714844 350.511719 89.34375 352.148438 91.484375 Z M 21.367188 279.953125 " fill-opacity="1" fill-rule="nonzero"/><path fill="#ffffff" d="M 187.6875 63.09375 C 118.921875 63.09375 63.140625 118.808594 63.140625 187.5 C 63.140625 256.191406 118.921875 311.90625 187.6875 311.90625 C 256.453125 311.90625 312.234375 256.191406 312.234375 187.5 C 312.234375 118.808594 256.453125 63.09375 187.6875 63.09375 Z M 187.6875 249.703125 C 153.347656 249.703125 125.414062 221.800781 125.414062 187.5 C 125.414062 153.199219 153.347656 125.296875 187.6875 125.296875 C 222.027344 125.296875 249.960938 153.199219 249.960938 187.5 C 249.960938 221.800781 222.027344 249.703125 187.6875 249.703125 Z M 187.6875 249.703125 " fill-opacity="1" fill-rule="nonzero"/><path fill="#00e676" d="M 352.132812 91.574219 C 356.722656 95.863281 356.632812 102.335938 356.632812 107.425781 C 356.632812 141.148438 356.347656 237.066406 356.714844 270.789062 C 356.75 274.308594 355.582031 278.015625 353.839844 280.804688 L 184.066406 187.5 Z M 352.132812 91.574219 " fill-opacity="1" fill-rule="nonzero"/><path fill="#ffffff" d="M 276.648438 151.953125 L 285.542969 151.953125 L 285.542969 223.046875 L 276.648438 223.046875 Z M 303.335938 151.953125 L 312.234375 151.953125 L 312.234375 223.046875 L 303.335938 223.046875 Z M 303.335938 151.953125 " fill-opacity="1" fill-rule="nonzero"/><path fill="#ffffff" d="M 258.855469 196.386719 L 330.023438 196.386719 L 330.023438 205.273438 L 258.855469 205.273438 Z M 258.855469 169.726562 L 330.023438 169.726562 L 330.023438 178.613281 L 258.855469 178.613281 Z M 258.855469 169.726562 " fill-opacity="1" fill-rule="nonzero"/></svg>