<?xml version="1.0" encoding="utf-8"?>
<!-- Generator: Adobe Illustrator 24.2.0, SVG Export Plug-In . SVG Version: 6.00 Build 0)  -->
<svg version="1.0" id="Layer_1" xmlns="http://www.w3.org/2000/svg"
	xmlns:xlink="http://www.w3.org/1999/xlink" x="0px" y="0px"
	viewBox="0 0 300 280" enable-background="new 0 0 300 280" xml:space="preserve"
	width="48" height="48">
<g>
	<path fill="#2A101F" d="M50.75,43.46h198.5v193.08H50.75V43.46z"/>
	<path fill="#DB4C9B" d="M41.73,34.44v211.13h216.54V34.44H41.73z M50.75,43.46h198.5v193.08H50.75V43.46z"/>
	<path fill="#DB4C9B" d="M198.99,123.13c-1.35-0.63-3.07-0.9-5.23-0.9c-11.37,0-18.95,8.75-18.95,23.28
		c0,16.6,7.76,23.28,17.86,23.28c2.17,0,4.51-0.27,6.23-0.99v-44.66H198.99z M158.57,146.23c0-21.02,13.53-37.44,35.73-37.44
		c1.89,0,2.89,0,4.69,0.18V85.5c0-0.54,0.45-0.9,0.9-0.9h14.53c0.72,0,0.9,0.27,0.9,0.72v82.47c0,2.44,0,5.5,0.45,8.84
		c0,0.63,0,0.72-0.54,0.99c-7.58,3.61-15.52,5.23-23.1,5.23C172.56,182.86,158.57,170.77,158.57,146.23L158.57,146.23z
		 M127.8,131.61l25.26,48.99c0.45,0.72,0.18,1.44-0.54,1.44h-15.7c-0.99,0-1.44-0.27-1.89-1.17c-5.77-11.91-11.64-24.27-17.68-37.08
		h-0.18c-5.41,12.09-11.37,25.26-17.14,37.17c-0.45,0.72-0.9,0.99-1.62,0.99H83.32c-0.9,0-0.99-0.72-0.54-1.26l24.72-47.55
		L83.59,85.86c-0.54-0.72,0-1.35,0.63-1.35h15.52c0.9,0,1.35,0.18,1.62,0.99c5.68,12,11.46,23.82,16.87,35.91h0.18
		c5.23-11.91,11.01-23.91,16.51-35.73c0.45-0.72,0.72-1.17,1.62-1.17h14.53c0.72,0,0.99,0.54,0.54,1.35L127.8,131.61L127.8,131.61z"
		/>
</g>
</svg>