<svg xmlns="http://www.w3.org/2000/svg" xmlns:xlink="http://www.w3.org/1999/xlink" width="500" zoomAndPan="magnify" viewBox="0 0 375 374.999991" height="500" preserveAspectRatio="xMidYMid meet" version="1.0"><defs><clipPath id="9c6d382e83"><path d="M 58.125 0 L 316.875 0 L 316.875 375 L 58.125 375 Z M 58.125 0 " clip-rule="nonzero"/></clipPath></defs><g clip-path="url(#9c6d382e83)"><path fill="#000000" d="M 129.375 -0.0195312 C 90.039062 -0.0195312 58.152344 31.871094 58.152344 71.203125 C 58.152344 95.210938 70.027344 116.445312 88.226562 129.347656 C 70.027344 142.25 58.152344 163.480469 58.152344 187.488281 C 58.152344 211.496094 70.027344 232.726562 88.226562 245.628906 C 70.027344 258.53125 58.152344 279.765625 58.152344 303.773438 C 58.152344 343.109375 90.039062 374.996094 129.375 374.996094 C 168.710938 374.996094 200.597656 343.109375 200.597656 303.773438 L 200.597656 242.648438 C 212.875 252.6875 228.5625 258.710938 245.660156 258.710938 C 284.992188 258.710938 316.882812 226.824219 316.882812 187.488281 C 316.882812 163.480469 305.003906 142.25 286.808594 129.347656 C 305.003906 116.445312 316.882812 95.210938 316.882812 71.203125 C 316.882812 31.871094 284.992188 -0.0195312 245.660156 -0.0195312 Z M 174.433594 232.546875 L 129.375 232.546875 C 104.488281 232.546875 84.316406 212.375 84.316406 187.488281 C 84.316406 162.601562 104.488281 142.429688 129.375 142.429688 L 174.433594 142.429688 Z M 129.375 116.265625 L 174.433594 116.265625 L 174.433594 26.144531 L 129.375 26.144531 C 104.488281 26.144531 84.316406 46.320312 84.316406 71.203125 C 84.316406 96.089844 104.488281 116.265625 129.375 116.265625 Z M 290.71875 71.203125 C 290.71875 96.074219 270.570312 116.238281 245.707031 116.265625 L 200.597656 116.265625 L 200.597656 26.144531 L 245.660156 26.144531 C 270.542969 26.144531 290.71875 46.320312 290.71875 71.203125 Z M 200.597656 187.433594 C 200.628906 162.589844 220.761719 142.457031 245.601562 142.429688 L 245.703125 142.429688 C 270.566406 142.453125 290.71875 162.617188 290.71875 187.488281 C 290.71875 212.375 270.542969 232.546875 245.660156 232.546875 C 220.792969 232.546875 200.628906 212.402344 200.597656 187.542969 Z M 129.375 258.710938 C 104.488281 258.710938 84.316406 278.886719 84.316406 303.773438 C 84.316406 328.65625 104.488281 348.832031 129.375 348.832031 C 154.261719 348.832031 174.433594 328.65625 174.433594 303.773438 L 174.433594 258.710938 Z M 129.375 258.710938 " fill-opacity="1" fill-rule="evenodd"/></g></svg>