<svg xmlns="http://www.w3.org/2000/svg" xmlns:xlink="http://www.w3.org/1999/xlink" width="500" zoomAndPan="magnify" viewBox="0 0 375 374.999991" height="500" preserveAspectRatio="xMidYMid meet" version="1.0"><path stroke-linecap="butt" transform="matrix(11.718749, 0, 0, 11.718749, 0.0000045, 0)" fill="none" stroke-linejoin="miter" d="M 6 6 L 26.000001 6 L 26.000001 26.000002 L 6 26.000002 Z M 6 6 " stroke="#000000" stroke-width="2" stroke-opacity="1" stroke-miterlimit="10"/><path stroke-linecap="butt" transform="matrix(11.718749, 0, 0, 11.718749, 0.0000045, 0)" fill="none" stroke-linejoin="miter" d="M 13 16.000001 L 12.333 16.000001 " stroke="#000000" stroke-width="2" stroke-opacity="1" stroke-miterlimit="10"/><path stroke-linecap="butt" transform="matrix(11.718749, 0, 0, 11.718749, 0.0000045, 0)" fill="none" stroke-linejoin="miter" d="M 11 16.000001 L 13 16.000001 C 14.105001 16.000001 15.000001 15.105001 15.000001 14.000001 C 15.000001 12.895001 14.105001 12.000001 13 12.000001 L 11 12.000001 L 11 21.000001 " stroke="#000000" stroke-width="2" stroke-opacity="1" stroke-miterlimit="10"/><path stroke-linecap="butt" transform="matrix(11.718749, 0, 0, 11.718749, 0.0000045, 0)" fill="none" stroke-linejoin="miter" d="M 21.000001 15.408001 C 21.000001 14.756001 20.530001 14.000001 19.500001 14.000001 C 18.672001 14.000001 18.000001 14.672001 18.000001 15.500001 C 18.000001 16.328001 18.672001 17.000001 19.500001 17.000001 C 20.328001 17.000001 21.000001 17.672001 21.000001 18.500001 C 21.000001 19.328001 20.424001 20.000001 19.500001 20.000001 C 18.396001 20.000001 18.000001 19.428001 18.000001 18.619001 " stroke="#000000" stroke-width="2" stroke-opacity="1" stroke-miterlimit="10"/></svg>