<svg xmlns="http://www.w3.org/2000/svg" xmlns:xlink="http://www.w3.org/1999/xlink" width="512" zoomAndPan="magnify" viewBox="0 0 384 383.999986" height="512" preserveAspectRatio="xMidYMid meet" version="1.0"><path fill="#ffffff" d="M 369.886719 233.804688 C 368.289062 226.570312 361.726562 218.128906 348.488281 218.128906 C 345.785156 218.128906 342.824219 218.46875 339.457031 219.167969 C 333.277344 220.441406 328.015625 221.0625 323.378906 221.269531 C 359.449219 159.832031 382.867188 74.488281 359.675781 44.859375 C 329.121094 5.820312 287.992188 -0.0078125 266.199219 -0.0078125 L 264.148438 0 C 256.039062 0.132812 247.628906 1.125 239.164062 2.957031 L 207.890625 9.714844 C 203.632812 9.179688 199.296875 8.804688 194.773438 8.726562 L 194.375 8.726562 L 193.046875 8.71875 C 179.144531 8.71875 166.464844 11.667969 155.164062 17.210938 L 144.246094 12.90625 C 129.234375 6.992188 106.648438 -0.0507812 84.304688 -0.0507812 C 83.046875 -0.0507812 81.800781 -0.0273438 80.542969 0.015625 C 58.535156 0.8125 39.628906 9.164062 25.867188 24.164062 C 8.691406 42.894531 0.871094 70.289062 2.644531 105.601562 C 2.730469 107.425781 24.097656 288 84.65625 288 L 84.871094 288 L 85.429688 287.992188 C 93.292969 287.800781 100.792969 284.640625 107.800781 278.59375 C 113.148438 282.605469 120.070312 284.980469 126.519531 285.921875 C 130.777344 286.925781 138.441406 288.347656 147.621094 288.347656 C 158.828125 288.347656 168.933594 286.054688 177.644531 281.910156 C 177.636719 289.589844 177.589844 299.308594 177.503906 311.738281 L 177.496094 312.394531 L 177.539062 313.046875 C 178.386719 325.429688 180.523438 336.59375 183.742188 345.347656 C 192.917969 370.296875 208.757812 384.042969 228.347656 384.042969 C 229.160156 384.042969 229.988281 384.015625 230.828125 383.964844 C 246.9375 382.96875 263.265625 373.921875 274.5 359.773438 C 286.65625 344.457031 289.464844 328.292969 290.546875 315.910156 L 290.617188 315.152344 L 290.617188 278.785156 L 291.515625 278.871094 L 295.320312 279.203125 L 295.6875 279.238281 L 296.054688 279.253906 C 297.136719 279.308594 298.253906 279.324219 299.378906 279.324219 C 312.53125 279.324219 328.722656 275.914062 339.664062 270.824219 C 350.128906 265.972656 374.042969 252.636719 369.886719 233.804688 Z M 369.886719 233.804688 " fill-opacity="1" fill-rule="nonzero"/><path fill="#0277bd" d="M 273.164062 270.546875 C 273.164062 268.757812 273.269531 267.265625 273.320312 265.613281 C 273.234375 263.425781 273.164062 261.816406 273.164062 261.816406 C 273.164062 261.816406 273.269531 261.738281 273.441406 261.625 C 274.742188 238.296875 281.175781 229.308594 288.0625 224.1875 C 287.101562 222.851562 285.992188 221.410156 284.953125 220.039062 C 282.046875 216.226562 278.425781 211.496094 274.550781 205.429688 L 273.835938 204.050781 C 273.25 202.621094 271.835938 200.152344 270.039062 196.90625 C 259.714844 178.226562 238.226562 139.375 252.933594 114.832031 C 259.375 104.082031 271.453125 97.886719 288.898438 96.359375 C 281.769531 76.085938 255.054688 27.183594 194.488281 26.183594 C 194.46875 26.183594 194.453125 26.183594 194.433594 26.183594 C 141.714844 25.328125 124.390625 73.238281 118.753906 101.863281 C 126.519531 98.574219 135.386719 96.574219 143.503906 96.574219 C 143.625 96.574219 143.753906 96.574219 143.878906 96.574219 C 163.863281 96.722656 177.609375 107.390625 181.605469 125.847656 C 184.53125 139.390625 185.933594 151.242188 185.898438 162.089844 C 185.8125 185.820312 181.03125 198.300781 176.804688 209.316406 L 175.460938 212.875 C 174.378906 215.789062 173.238281 218.503906 172.152344 221.054688 C 171.054688 223.652344 170.085938 225.964844 169.378906 228.050781 C 173.601562 229.011719 176.917969 230.363281 179.195312 231.367188 L 180.515625 231.945312 C 180.925781 232.121094 181.335938 232.320312 181.710938 232.546875 C 189.109375 237.050781 193.71875 243.972656 194.707031 252.035156 C 195.238281 256.382812 195.152344 286.011719 194.96875 311.859375 C 195.726562 323.074219 197.628906 332.492188 200.140625 339.316406 C 203.710938 349.039062 212.632812 367.601562 229.761719 366.535156 C 241.71875 365.792969 253.214844 358.515625 260.839844 348.917969 C 269.027344 338.609375 272.046875 327.210938 273.179688 314.375 L 273.179688 270.546875 Z M 273.164062 270.546875 " fill-opacity="1" fill-rule="nonzero"/><path fill="#0277bd" d="M 117.066406 226.183594 C 102.992188 211.496094 96.132812 191.738281 98.707031 173.332031 C 101.191406 155.574219 99.789062 138.1875 99.027344 128.839844 C 98.773438 125.726562 98.609375 123.402344 98.617188 122.121094 C 98.617188 122.050781 98.636719 121.988281 98.644531 121.921875 C 98.644531 121.886719 98.625 121.859375 98.625 121.824219 C 99.683594 95.457031 109.851562 53.863281 137.839844 29.140625 C 124.207031 23.773438 102.003906 16.695312 81.164062 17.453125 C 48.507812 18.640625 16.894531 41.226562 20.074219 104.726562 C 21.269531 128.550781 48.191406 271.445312 85.003906 270.546875 C 90.265625 270.414062 95.730469 267.035156 101.339844 260.28125 C 110.214844 249.609375 118.839844 239.929688 124.972656 233.191406 C 122.226562 231.105469 119.574219 228.804688 117.066406 226.183594 Z M 308.273438 102.378906 C 308.40625 103.722656 308.289062 104.875 308.082031 105.941406 C 308.351562 113.96875 307.488281 121.761719 306.605469 129.304688 C 305.960938 134.855469 305.296875 140.585938 305.113281 146.339844 C 304.929688 151.96875 305.726562 157.527344 306.5625 163.410156 C 308.527344 177.179688 310.570312 192.722656 299.886719 210.859375 C 301.851562 213.441406 303.578125 215.84375 304.957031 218.164062 C 345.191406 152.929688 361.40625 75.378906 345.929688 55.609375 C 322.515625 25.691406 290.101562 17.035156 264.425781 17.453125 C 256.390625 17.585938 249.085938 18.667969 242.84375 20.019531 C 287.144531 41.488281 306.878906 87.5 308.273438 102.378906 Z M 342.980469 236.257812 C 319.722656 241.054688 308.535156 238.5 303.105469 235.15625 C 302.234375 235.785156 301.363281 236.316406 300.550781 236.816406 C 297.304688 238.777344 292.164062 241.902344 290.90625 261.09375 C 291.628906 261.234375 292.269531 261.3125 293.054688 261.476562 L 296.847656 261.816406 C 308.371094 262.34375 323.457031 259.113281 332.308594 255.003906 C 351.378906 246.152344 361.773438 232.382812 342.980469 236.257812 Z M 177.363281 254.128906 C 177.042969 251.527344 175.636719 249.425781 173.070312 247.742188 L 172.128906 247.332031 C 168.976562 245.941406 165.40625 244.363281 159.710938 244.363281 L 159.675781 244.363281 C 158.566406 244.449219 157.464844 244.53125 156.359375 244.53125 C 155.902344 244.53125 155.457031 244.46875 155.003906 244.449219 C 150.867188 247.636719 144.984375 250.097656 130.429688 253.089844 C 104.421875 259.714844 119.773438 267.535156 129.75 268.746094 C 139.402344 271.164062 162.34375 274.105469 177.582031 261.6875 C 177.539062 257.777344 177.46875 255.089844 177.363281 254.128906 Z M 177.363281 254.128906 " fill-opacity="1" fill-rule="nonzero"/><path fill="#0277bd" d="M 165.652344 135.28125 C 163.105469 137.917969 159.082031 140.222656 154.636719 139.503906 C 147.414062 138.335938 141.871094 129.617188 142.273438 126.34375 C 142.65625 123.082031 148.828125 121.378906 156.042969 122.546875 C 158.546875 122.957031 160.828125 123.664062 162.746094 124.539062 C 159.953125 118.535156 154.898438 115.070312 147.195312 114.222656 C 133.535156 112.703125 119.039062 119.84375 116.125 123.796875 C 116.1875 124.757812 116.300781 125.988281 116.414062 127.4375 C 117.226562 137.445312 118.726562 156.097656 115.976562 175.757812 C 114.160156 188.71875 119.40625 203.414062 129.652344 214.113281 C 136.257812 221.007812 143.972656 225.375 151.585938 226.664062 C 152.554688 222.492188 154.28125 218.425781 156.0625 214.226562 C 157.046875 211.914062 158.09375 209.453125 159.082031 206.792969 L 160.496094 203.066406 C 164.359375 192.984375 168.347656 182.558594 168.425781 162.023438 C 168.460938 154.125 167.492188 145.109375 165.652344 135.28125 Z M 289.28125 165.878906 C 288.375 159.515625 287.441406 152.929688 287.667969 145.78125 C 287.867188 139.304688 288.585938 133.195312 289.273438 127.289062 C 289.816406 122.636719 290.234375 118.167969 290.476562 113.761719 C 279.230469 114.695312 271.757812 117.941406 268.214844 123.429688 C 269.679688 122.933594 271.339844 122.539062 273.171875 122.304688 C 280.957031 121.292969 286.636719 123.535156 287.292969 127.863281 C 287.773438 131.03125 285.085938 134.015625 283.90625 135.160156 C 281.488281 137.507812 278.445312 139.015625 275.34375 139.417969 C 274.785156 139.488281 274.21875 139.523438 273.667969 139.523438 C 270.589844 139.523438 267.648438 138.46875 265.386719 136.90625 C 266.363281 154.125 279.0625 177.15625 285.3125 188.457031 C 286.648438 190.875 287.675781 192.804688 288.53125 194.460938 C 291.960938 184.695312 290.695312 175.792969 289.28125 165.878906 Z M 289.28125 165.878906 " fill-opacity="1" fill-rule="nonzero"/></svg>